<?xml version="1.0" standalone="no"?>
<!DOCTYPE svg PUBLIC "-//W3C//DTD SVG 20010904//EN"
 "http://www.w3.org/TR/2001/REC-SVG-20010904/DTD/svg10.dtd">
<svg version="1.0" xmlns="http://www.w3.org/2000/svg"
 width="626.000000pt" height="626.000000pt" viewBox="0 0 626.000000 626.000000"
 preserveAspectRatio="xMidYMid meet">

<g transform="translate(0.000000,626.000000) scale(0.100000,-0.100000)"
fill="#000000" stroke="none">
<path d="M3360 5786 c0 -2 8 -10 18 -17 15 -13 16 -12 3 4 -13 16 -21 21 -21
13z"/>
<path d="M3764 5668 l-19 -23 23 19 c21 18 27 26 19 26 -2 0 -12 -10 -23 -22z"/>
<path d="M3209 5603 c-13 -16 -12 -17 4 -4 16 13 21 21 13 21 -2 0 -10 -8 -17
-17z"/>
<path d="M2595 5440 c10 -11 20 -20 23 -20 3 0 -3 9 -13 20 -10 11 -20 20 -23
20 -3 0 3 -9 13 -20z"/>
<path d="M3728 5243 c7 -3 16 -2 19 1 4 3 -2 6 -13 5 -11 0 -14 -3 -6 -6z"/>
<path d="M4890 5210 c-9 -6 -10 -10 -3 -10 6 0 15 5 18 10 8 12 4 12 -15 0z"/>
<path d="M2359 5083 l-24 -28 28 24 c25 23 32 31 24 31 -2 0 -14 -12 -28 -27z"/>
<path d="M2306 5091 c-3 -5 2 -15 12 -22 15 -12 16 -12 5 2 -7 9 -10 19 -6 22
3 4 4 7 0 7 -3 0 -8 -4 -11 -9z"/>
<path d="M2445 5091 c-3 -5 -1 -12 5 -16 5 -3 10 1 10 9 0 18 -6 21 -15 7z"/>
<path d="M2240 5049 c0 -5 5 -7 10 -4 6 3 10 8 10 11 0 2 -4 4 -10 4 -5 0 -10
-5 -10 -11z"/>
<path d="M1486 4942 c-3 -5 1 -9 9 -9 8 0 12 4 9 9 -3 4 -7 8 -9 8 -2 0 -6 -4
-9 -8z"/>
<path d="M4550 4805 c-11 -13 -10 -14 4 -9 9 3 16 10 16 15 0 13 -6 11 -20 -6z"/>
<path d="M4156 4784 c-15 -14 -26 -27 -24 -29 2 -3 17 9 33 25 35 36 30 39 -9
4z"/>
<path d="M4446 4792 c-2 -4 0 -14 6 -22 8 -12 9 -12 5 2 -3 9 -1 19 6 22 9 3
9 5 0 5 -6 1 -14 -3 -17 -7z"/>
<path d="M4175 4770 c-3 -5 -1 -10 4 -10 6 0 11 5 11 10 0 6 -2 10 -4 10 -3 0
-8 -4 -11 -10z"/>
<path d="M4224 4765 c-8 -19 4 -35 24 -34 14 1 14 2 -1 6 -13 3 -17 11 -14 24
6 22 -1 26 -9 4z"/>
<path d="M4291 4766 c-13 -16 10 -41 31 -33 8 3 5 6 -6 6 -13 1 -17 6 -13 21
6 24 4 25 -12 6z"/>
<path d="M4359 4763 c-13 -16 -12 -17 4 -4 15 12 17 11 17 -3 0 -21 24 -20 41
2 11 14 11 15 -1 5 -19 -17 -30 -16 -30 2 0 20 -14 19 -31 -2z"/>
<path d="M4494 4765 c8 -8 18 -15 22 -15 3 0 1 7 -6 15 -7 8 -17 15 -22 15 -5
0 -3 -7 6 -15z"/>
<path d="M4537 4773 c-9 -8 12 -33 27 -33 6 0 3 5 -7 11 -9 6 -15 14 -12 20 7
10 2 12 -8 2z"/>
<path d="M2390 4487 c0 -209 10 -248 80 -318 74 -74 101 -79 435 -79 319 0
343 4 419 71 73 64 86 113 86 324 l0 175 -510 0 -510 0 0 -173z m918 -60 c-3
-127 -4 -135 -30 -169 -51 -67 -63 -69 -390 -66 -289 3 -293 3 -326 26 -58 42
-72 85 -72 222 l0 120 411 0 411 0 -4 -133z"/>
<path d="M2107 4589 c7 -7 15 -10 18 -7 3 3 -2 9 -12 12 -14 6 -15 5 -6 -5z"/>
<path d="M870 4546 c0 -2 8 -10 18 -17 15 -13 16 -12 3 4 -13 16 -21 21 -21
13z"/>
<path d="M1450 4437 c26 -9 34 -17 32 -32 -3 -17 -1 -18 10 -7 11 11 9 17 -11
33 -13 10 -33 19 -45 18 -15 0 -11 -4 14 -12z"/>
<path d="M1553 4443 c9 -2 23 -2 30 0 6 3 -1 5 -18 5 -16 0 -22 -2 -12 -5z"/>
<path d="M1655 4435 c-20 -16 -19 -16 2 -6 30 15 41 14 47 -6 4 -14 4 -14 3 2
-3 25 -27 30 -52 10z"/>
<path d="M1586 4413 c-6 -14 -5 -15 5 -6 7 7 10 15 7 18 -3 3 -9 -2 -12 -12z"/>
<path d="M1531 4404 c0 -11 3 -14 6 -6 3 7 2 16 -1 19 -3 4 -6 -2 -5 -13z"/>
<path d="M1421 4394 c0 -11 3 -14 6 -6 3 7 2 16 -1 19 -3 4 -6 -2 -5 -13z"/>
<path d="M1691 4384 c0 -11 3 -14 6 -6 3 7 2 16 -1 19 -3 4 -6 -2 -5 -13z"/>
<path d="M2026 4390 c-38 -12 -75 -47 -92 -87 -12 -27 -14 -231 -14 -1183 0
-1134 0 -1151 20 -1190 13 -26 34 -47 60 -60 38 -20 57 -20 883 -20 l844 0 33
23 c18 12 43 35 54 50 21 28 21 29 24 1185 l2 1157 -22 45 c-34 67 -86 90
-205 90 l-93 0 0 -27 c0 -16 -3 -38 -6 -50 -6 -23 -5 -23 90 -23 154 0 136
152 136 -1173 0 -1009 -2 -1135 -16 -1155 l-15 -22 -829 0 c-740 0 -830 2
-844 16 -14 14 -16 133 -16 1159 l0 1144 22 15 c17 12 49 16 136 16 l113 0 -3
48 -3 47 -115 2 c-63 1 -128 -2 -144 -7z"/>
<path d="M1621 4374 c0 -11 3 -14 6 -6 3 7 2 16 -1 19 -3 4 -6 -2 -5 -13z"/>
<path d="M1530 4371 c0 -7 -4 -10 -8 -7 -5 3 -6 -9 -3 -27 l5 -32 7 35 c4 19
6 37 3 39 -2 2 -4 -1 -4 -8z"/>
<path d="M1440 4336 c7 -10 27 -24 44 -33 38 -19 32 -12 -19 23 -22 14 -33 19
-25 10z"/>
<path d="M1575 4341 c4 -8 2 -17 -6 -22 -9 -6 -10 -9 -2 -9 19 0 27 21 13 33
-10 9 -11 9 -5 -2z"/>
<path d="M1620 4331 c0 -10 29 -36 34 -30 1 2 -6 12 -16 22 -10 9 -18 13 -18
8z"/>
<path d="M1422 4095 c0 -16 2 -22 5 -12 2 9 2 23 0 30 -3 6 -5 -1 -5 -18z"/>
<path d="M4241 3882 c-30 -70 -67 -166 -83 -215 l-28 -87 0 -708 c0 -447 4
-720 10 -744 13 -46 77 -105 124 -114 87 -16 174 38 195 121 8 30 11 260 11
737 0 594 -2 702 -15 753 -16 60 -138 362 -153 377 -4 4 -32 -50 -61 -120z
m87 -194 c12 -35 22 -66 22 -70 0 -5 -22 -8 -50 -8 -31 0 -50 4 -50 11 0 19
42 129 49 129 4 0 17 -28 29 -62z m40 -750 l-3 -573 -67 -3 -68 -3 0 576 0
575 70 0 70 0 -2 -572z m2 -727 c0 -87 -63 -130 -117 -79 -18 17 -23 32 -23
75 l0 53 70 0 70 0 0 -49z"/>
<path d="M4645 3995 c11 -8 26 -19 33 -25 7 -7 12 -7 12 -1 0 12 -40 41 -55
41 -5 0 -1 -7 10 -15z"/>
<path d="M4860 3979 c-7 -11 -10 -23 -7 -25 2 -2 9 7 15 21 14 30 7 33 -8 4z"/>
<path d="M1580 3976 c0 -2 7 -7 16 -10 8 -3 12 -2 9 4 -6 10 -25 14 -25 6z"/>
<path d="M1559 3943 c-13 -16 -12 -17 4 -4 9 7 17 15 17 17 0 8 -8 3 -21 -13z"/>
<path d="M4750 3945 c0 -5 5 -17 10 -25 5 -8 10 -10 10 -5 0 6 -5 17 -10 25
-5 8 -10 11 -10 5z"/>
<path d="M4612 3920 c0 -14 2 -19 5 -12 2 6 2 18 0 25 -3 6 -5 1 -5 -13z"/>
<path d="M4721 3924 c0 -11 3 -14 6 -6 3 7 2 16 -1 19 -3 4 -6 -2 -5 -13z"/>
<path d="M4801 3924 c0 -11 3 -14 6 -6 3 7 2 16 -1 19 -3 4 -6 -2 -5 -13z"/>
<path d="M1658 3913 c6 -2 18 -2 25 0 6 3 1 5 -13 5 -14 0 -19 -2 -12 -5z"/>
<path d="M4831 3904 c0 -11 3 -14 6 -6 3 7 2 16 -1 19 -3 4 -6 -2 -5 -13z"/>
<path d="M4647 3885 c-15 -14 -24 -25 -20 -25 11 0 25 12 42 33 19 24 11 21
-22 -8z"/>
<path d="M788 3873 c6 -2 18 -2 25 0 6 3 1 5 -13 5 -14 0 -19 -2 -12 -5z"/>
<path d="M2458 3773 c-8 -10 -27 -56 -42 -103 -49 -151 -42 -140 -97 -140
l-49 0 0 -35 0 -35 69 0 c43 0 72 5 78 13 6 6 20 44 33 82 13 39 27 74 30 78
4 4 30 -72 58 -170 62 -211 69 -228 102 -228 21 0 33 14 75 92 l50 93 71 0
c45 0 75 5 82 13 6 7 18 44 28 82 9 39 20 74 24 78 4 5 31 -89 60 -210 29
-120 57 -226 62 -235 10 -21 53 -24 65 -6 4 7 26 71 48 143 l41 130 122 3 122
3 0 35 0 35 -147 -3 -147 -3 -31 -97 c-16 -54 -33 -98 -36 -98 -3 0 -29 102
-59 228 -29 125 -57 235 -62 245 -10 20 -51 23 -65 5 -6 -7 -25 -73 -43 -145
l-32 -133 -68 0 c-77 0 -88 -8 -124 -89 -11 -22 -23 -41 -27 -41 -5 0 -13 17
-18 38 -48 175 -112 377 -123 383 -20 13 -33 11 -50 -8z"/>
<path d="M1705 3530 c10 -11 20 -20 23 -20 3 0 -3 9 -13 20 -10 11 -20 20 -23
20 -3 0 3 -9 13 -20z"/>
<path d="M5109 3493 c-13 -16 -12 -17 4 -4 9 7 17 15 17 17 0 8 -8 3 -21 -13z"/>
<path d="M1475 3320 c10 -11 20 -20 23 -20 3 0 -3 9 -13 20 -10 11 -20 20 -23
20 -3 0 3 -9 13 -20z"/>
<path d="M1050 3276 c0 -2 7 -7 16 -10 8 -3 12 -2 9 4 -6 10 -25 14 -25 6z"/>
<path d="M5186 3055 c-9 -26 -7 -32 5 -12 6 10 9 21 6 23 -2 3 -7 -2 -11 -11z"/>
<path d="M790 3042 c0 -4 16 -6 35 -4 19 2 35 6 35 8 0 2 -16 4 -35 4 -19 0
-35 -4 -35 -8z"/>
<path d="M890 3046 c0 -2 7 -7 16 -10 8 -3 12 -2 9 4 -6 10 -25 14 -25 6z"/>
<path d="M1028 3030 c24 -10 27 -20 12 -38 -5 -7 -2 -6 7 2 13 12 14 18 3 30
-7 9 -20 16 -29 15 -11 0 -9 -3 7 -9z"/>
<path d="M882 3005 c0 -16 2 -22 5 -12 2 9 2 23 0 30 -3 6 -5 -1 -5 -18z"/>
<path d="M822 2990 c0 -19 2 -27 5 -17 2 9 2 25 0 35 -3 9 -5 1 -5 -18z"/>
<path d="M5144 2987 l-29 -32 30 25 c17 14 32 26 34 28 2 1 2 4 -1 7 -2 3 -18
-10 -34 -28z"/>
<path d="M979 2982 c-3 -20 -2 -29 4 -23 5 5 7 19 5 32 -3 20 -5 19 -9 -9z"/>
<path d="M4975 2991 c-3 -5 -1 -12 5 -16 5 -3 10 1 10 9 0 18 -6 21 -15 7z"/>
<path d="M5290 2975 c-20 -21 -21 -27 -10 -38 10 -10 11 -9 5 1 -4 8 2 23 16
38 12 13 20 24 17 24 -2 0 -15 -11 -28 -25z"/>
<path d="M5476 2967 c3 -10 9 -15 12 -12 3 3 0 11 -7 18 -10 9 -11 8 -5 -6z"/>
<path d="M919 2953 c-13 -16 -12 -17 4 -4 9 7 17 15 17 17 0 8 -8 3 -21 -13z"/>
<path d="M4939 2953 c-13 -16 -12 -17 4 -4 16 13 21 21 13 21 -2 0 -10 -8 -17
-17z"/>
<path d="M5329 2953 c-13 -16 -12 -17 4 -4 16 13 21 21 13 21 -2 0 -10 -8 -17
-17z"/>
<path d="M5360 2950 c0 -6 7 -10 15 -10 8 0 15 2 15 4 0 2 -7 6 -15 10 -8 3
-15 1 -15 -4z"/>
<path d="M5078 2943 c7 -3 16 -2 19 1 4 3 -2 6 -13 5 -11 0 -14 -3 -6 -6z"/>
<path d="M5528 2943 c7 -3 16 -2 19 1 4 3 -2 6 -13 5 -11 0 -14 -3 -6 -6z"/>
<path d="M1000 2936 c0 -2 8 -10 18 -17 15 -13 16 -12 3 4 -13 16 -21 21 -21
13z"/>
<path d="M4658 2933 c7 -3 16 -2 19 1 4 3 -2 6 -13 5 -11 0 -14 -3 -6 -6z"/>
<path d="M1702 2904 c10 -10 20 -16 22 -13 3 3 -5 11 -17 18 -21 13 -21 12 -5
-5z"/>
<path d="M4668 2893 c7 -3 16 -2 19 1 4 3 -2 6 -13 5 -11 0 -14 -3 -6 -6z"/>
<path d="M2270 2800 l0 -50 590 0 590 0 0 50 0 50 -590 0 -590 0 0 -50z"/>
<path d="M5264 2578 c-4 -7 -4 -10 1 -6 4 4 15 2 24 -5 14 -11 14 -10 2 6 -16
20 -18 21 -27 5z"/>
<path d="M1415 2538 c-22 -23 -31 -35 -19 -25 11 9 23 15 25 13 2 -3 12 9 21
25 9 16 16 29 15 29 -2 0 -21 -19 -42 -42z"/>
<path d="M2270 2475 l0 -45 590 0 590 0 0 45 0 45 -590 0 -590 0 0 -45z"/>
<path d="M1344 2468 l-19 -23 23 19 c21 18 27 26 19 26 -2 0 -12 -10 -23 -22z"/>
<path d="M1489 2463 c-13 -16 -12 -17 4 -4 9 7 17 15 17 17 0 8 -8 3 -21 -13z"/>
<path d="M1657 2306 c-13 -37 -13 -48 -2 -62 11 -16 15 -17 31 -4 13 12 18 12
21 3 3 -7 12 -13 21 -12 11 0 12 2 5 6 -7 2 -13 11 -13 19 0 18 -9 18 -32 -2
-16 -16 -18 -15 -24 1 -4 9 -2 33 4 53 16 52 7 51 -11 -2z"/>
<path d="M1716 2323 c-6 -14 -5 -15 5 -6 7 7 10 15 7 18 -3 3 -9 -2 -12 -12z"/>
<path d="M1561 2297 c-8 -10 -7 -14 4 -14 8 0 15 6 15 14 0 7 -2 13 -4 13 -2
0 -9 -6 -15 -13z"/>
<path d="M1422 2277 c-6 -7 -7 -18 -3 -26 6 -9 11 -10 15 -2 4 6 2 11 -5 11
-8 0 -8 4 1 15 7 8 10 15 7 15 -2 0 -9 -6 -15 -13z"/>
<path d="M1465 2280 c-3 -5 -1 -10 4 -10 6 0 11 5 11 10 0 6 -2 10 -4 10 -3 0
-8 -4 -11 -10z"/>
<path d="M1612 2267 c-15 -16 -18 -27 -12 -37 9 -14 14 -7 11 14 -1 5 6 17 15
27 24 27 12 24 -14 -4z"/>
<path d="M1505 2254 c8 -9 22 -13 30 -10 8 3 15 1 15 -4 0 -6 8 -10 18 -9 10
0 12 3 5 6 -7 2 -13 12 -13 20 0 13 -3 13 -15 3 -12 -10 -19 -10 -27 -2 -7 7
-16 12 -21 12 -5 0 -1 -7 8 -16z"/>
<path d="M4220 1817 c0 -2 15 -16 33 -33 l32 -29 -29 33 c-28 30 -36 37 -36
29z"/>
<path d="M4044 1788 l-19 -23 23 19 c12 11 22 21 22 23 0 8 -8 2 -26 -19z"/>
<path d="M3994 1738 l-19 -23 23 19 c12 11 22 21 22 23 0 8 -8 2 -26 -19z"/>
<path d="M4129 1733 c-13 -16 -12 -17 4 -4 16 13 21 21 13 21 -2 0 -10 -8 -17
-17z"/>
<path d="M1574 1708 l-19 -23 23 19 c21 18 27 26 19 26 -2 0 -12 -10 -23 -22z"/>
<path d="M3939 1673 l-34 -38 38 34 c20 19 37 36 37 38 0 8 -8 0 -41 -34z"/>
<path d="M4238 1703 c7 -3 16 -2 19 1 4 3 -2 6 -13 5 -11 0 -14 -3 -6 -6z"/>
<path d="M2897 1601 c-4 -17 -3 -21 5 -13 5 5 8 16 6 23 -3 8 -7 3 -11 -10z"/>
<path d="M3910 1613 c0 -6 8 -17 18 -24 16 -13 16 -13 2 6 -8 11 -16 22 -17
24 -2 2 -3 0 -3 -6z"/>
<path d="M3475 1568 c-4 -13 -24 -41 -44 -63 -33 -36 -33 -37 -3 -11 17 17 32
26 33 20 0 -5 7 9 15 30 8 22 12 41 10 43 -2 3 -7 -6 -11 -19z"/>
<path d="M3670 1550 c-23 -7 -23 -8 -3 -9 12 -1 25 4 28 9 3 6 5 10 3 9 -2 -1
-14 -5 -28 -9z"/>
<path d="M4020 1505 c13 -14 26 -25 28 -25 3 0 -5 11 -18 25 -13 14 -26 25
-28 25 -3 0 5 -11 18 -25z"/>
<path d="M3517 1502 c-15 -17 -15 -20 -1 -38 15 -19 15 -19 6 1 -8 14 -6 22 6
31 10 7 14 15 11 18 -3 3 -13 -2 -22 -12z"/>
<path d="M3796 1492 l-19 -27 25 23 26 24 5 -24 5 -23 -1 24 c-3 34 -19 35
-41 3z"/>
<path d="M3444 1488 c-4 -7 -4 -10 1 -6 4 4 14 0 22 -10 13 -15 13 -15 3 6
-12 25 -16 27 -26 10z"/>
<path d="M3587 1493 c-9 -9 -9 -43 1 -43 4 0 7 11 7 25 0 14 0 25 -1 25 0 0
-4 -3 -7 -7z"/>
<path d="M3699 1473 c-13 -17 -13 -17 6 -3 11 8 22 16 24 17 2 2 0 3 -6 3 -6
0 -17 -8 -24 -17z"/>
<path d="M3671 1464 c0 -11 3 -14 6 -6 3 7 2 16 -1 19 -3 4 -6 -2 -5 -13z"/>
<path d="M3410 1460 c-9 -6 -10 -10 -3 -10 6 0 15 5 18 10 8 12 4 12 -15 0z"/>
<path d="M4125 1410 c10 -11 20 -20 23 -20 3 0 -3 9 -13 20 -10 11 -20 20 -23
20 -3 0 3 -9 13 -20z"/>
<path d="M3770 1276 c0 -2 7 -7 16 -10 8 -3 12 -2 9 4 -6 10 -25 14 -25 6z"/>
<path d="M2251 1226 c-9 -10 -8 -15 2 -19 8 -3 13 3 13 14 0 23 0 23 -15 5z"/>
<path d="M1833 1135 c0 -22 2 -30 4 -17 2 12 2 30 0 40 -3 9 -5 -1 -4 -23z"/>
<path d="M1978 1153 c7 -3 16 -2 19 1 4 3 -2 6 -13 5 -11 0 -14 -3 -6 -6z"/>
<path d="M2026 1153 c5 -5 12 -12 16 -18 4 -6 8 -2 8 8 0 9 -7 17 -17 17 -9 0
-12 -3 -7 -7z"/>
<path d="M2094 1138 c-19 -23 -19 -23 2 -5 11 9 28 17 38 17 14 0 16 -7 12
-37 -4 -30 -4 -33 3 -13 5 14 9 33 10 43 1 25 -42 22 -65 -5z"/>
<path d="M1981 1124 c0 -11 3 -14 6 -6 3 7 2 16 -1 19 -3 4 -6 -2 -5 -13z"/>
<path d="M1888 1107 c-3 -13 -1 -32 3 -43 5 -13 8 -7 8 24 1 46 -4 55 -11 19z"/>
<path d="M1842 1060 c0 -14 2 -19 5 -12 2 6 2 18 0 25 -3 6 -5 1 -5 -13z"/>
<path d="M1968 1040 c-3 -19 0 -30 7 -30 7 0 10 11 7 30 -2 17 -5 30 -7 30 -2
0 -5 -13 -7 -30z"/>
<path d="M2070 1046 c0 -8 4 -17 9 -20 5 -4 7 3 4 14 -6 23 -13 26 -13 6z"/>
<path d="M4335 1029 c-4 -6 -5 -12 -2 -15 2 -3 7 2 10 11 7 17 1 20 -8 4z"/>
<path d="M4402 1000 c0 -19 2 -27 5 -17 2 9 2 25 0 35 -3 9 -5 1 -5 -18z"/>
<path d="M4322 980 c0 -14 2 -19 5 -12 2 6 2 18 0 25 -3 6 -5 1 -5 -13z"/>
<path d="M4340 995 c0 -5 5 -17 10 -25 5 -8 10 -10 10 -5 0 6 -5 17 -10 25 -5
8 -10 11 -10 5z"/>
<path d="M4439 943 l-24 -28 28 24 c15 14 27 26 27 28 0 8 -8 1 -31 -24z"/>
<path d="M4530 955 c-11 -13 -10 -14 4 -9 9 3 16 10 16 15 0 13 -6 11 -20 -6z"/>
<path d="M4638 952 c-15 -18 -13 -52 3 -52 6 0 6 7 0 18 -10 19 6 41 27 34 17
-5 15 5 -2 11 -8 3 -20 -2 -28 -11z"/>
<path d="M4564 938 c-4 -7 -4 -10 1 -6 4 4 14 0 21 -10 12 -15 12 -15 7 6 -6
24 -18 29 -29 10z"/>
<path d="M4470 933 c0 -19 21 -27 33 -13 9 10 9 11 -2 5 -8 -4 -17 -2 -22 6
-6 9 -9 10 -9 2z"/>
<path d="M2983 790 c0 -25 2 -35 4 -22 2 12 2 32 0 45 -2 12 -4 2 -4 -23z"/>
<path d="M3451 724 c0 -11 3 -14 6 -6 3 7 2 16 -1 19 -3 4 -6 -2 -5 -13z"/>
<path d="M3119 633 c-13 -16 -12 -17 4 -4 16 13 21 21 13 21 -2 0 -10 -8 -17
-17z"/>
<path d="M3310 636 c0 -2 7 -7 16 -10 8 -3 12 -2 9 4 -6 10 -25 14 -25 6z"/>
<path d="M3442 610 c0 -14 2 -19 5 -12 2 6 2 18 0 25 -3 6 -5 1 -5 -13z"/>
</g>
</svg>
